<svg xmlns="http://www.w3.org/2000/svg" xmlns:xlink="http://www.w3.org/1999/xlink" contentStyleType="text/css" data-diagram-type="DESCRIPTION" height="348px" preserveAspectRatio="none" style="width:579px;height:348px;" version="1.1" viewBox="0 0 579 348" width="579px" zoomAndPan="magnify"><defs/><g><!--entity Einit--><g class="entity" data-entity="Einit" data-source-line="6" data-uid="ent0002" id="entity_Einit"><rect fill="#424856" height="39.0679" rx="2.5" ry="2.5" style="stroke:#61AFEF;stroke-width:0.5;" width="92.9817" x="7" y="81"/><text fill="#ABB2BF" font-family="Noto Sans" font-size="14" lengthAdjust="spacing" textLength="72.9817" x="17" y="105.9659">early-init.el</text></g><!--entity Init--><g class="entity" data-entity="Init" data-source-line="7" data-uid="ent0003" id="entity_Init"><rect fill="#424856" height="39.0679" rx="2.5" ry="2.5" style="stroke:#61AFEF;stroke-width:0.5;" width="56.1898" x="25.4" y="155"/><text fill="#ABB2BF" font-family="Noto Sans" font-size="14" lengthAdjust="spacing" textLength="36.1898" x="35.4" y="179.9659">init.el</text></g><!--entity Mod--><g class="entity" data-entity="Mod" data-source-line="8" data-uid="ent0004" id="entity_Mod"><rect fill="#424856" height="39.0679" rx="2.5" ry="2.5" style="stroke:#61AFEF;stroke-width:0.5;" width="92.2957" x="302.23" y="155"/><text fill="#ABB2BF" font-family="Noto Sans" font-size="14" lengthAdjust="spacing" textLength="72.2957" x="312.23" y="179.9659">modules.el</text></g><!--entity Cstm--><g class="entity" data-entity="Cstm" data-source-line="9" data-uid="ent0005" id="entity_Cstm"><rect fill="#424856" height="39.0679" rx="2.5" ry="2.5" style="stroke:#61AFEF;stroke-width:0.5;" width="83.9518" x="11.51" y="229"/><text fill="#ABB2BF" font-family="Noto Sans" font-size="14" lengthAdjust="spacing" textLength="63.9518" x="21.51" y="253.9659">custom.el</text></g><!--entity Tun--><g class="entity" data-entity="Tun" data-source-line="10" data-uid="ent0006" id="entity_Tun"><rect fill="#424856" height="39.0679" rx="2.5" ry="2.5" style="stroke:#61AFEF;stroke-width:0.5;" width="118.7696" x="454.52" y="155"/><text fill="#ABB2BF" font-family="Noto Sans" font-size="14" lengthAdjust="spacing" textLength="98.7696" x="464.52" y="179.9659">prefix-config.el</text></g><!--entity Auth--><g class="entity" data-entity="Auth" data-source-line="13" data-uid="ent0007" id="entity_Auth"><rect fill="#424856" height="39.0679" rx="2.5" ry="2.5" style="stroke:#61AFEF;stroke-width:0.5;" width="59.1718" x="171.52" y="7"/><text fill="#ABB2BF" font-family="Noto Sans" font-size="14" lengthAdjust="spacing" textLength="39.1718" x="181.52" y="31.9659">.auth/</text></g><!--entity Site--><g class="entity" data-entity="Site" data-source-line="14" data-uid="ent0008" id="entity_Site"><rect fill="#424856" height="39.0679" rx="2.5" ry="2.5" style="stroke:#61AFEF;stroke-width:0.5;" width="75.5238" x="163.34" y="229"/><text fill="#ABB2BF" font-family="Noto Sans" font-size="14" lengthAdjust="spacing" textLength="55.5238" x="173.34" y="253.9659">site-lisp/</text></g><!--entity Ast--><g class="entity" data-entity="Ast" data-source-line="15" data-uid="ent0009" id="entity_Ast"><rect fill="#424856" height="39.0679" rx="2.5" ry="2.5" style="stroke:#61AFEF;stroke-width:0.5;" width="66.1298" x="168.04" y="81"/><text fill="#ABB2BF" font-family="Noto Sans" font-size="14" lengthAdjust="spacing" textLength="46.1298" x="178.04" y="105.9659">assets/</text></g><!--entity Modd--><g class="entity" data-entity="Modd" data-source-line="16" data-uid="ent0010" id="entity_Modd"><rect fill="#424856" height="39.0679" rx="2.5" ry="2.5" style="stroke:#61AFEF;stroke-width:0.5;" width="82.2438" x="159.98" y="155"/><text fill="#ABB2BF" font-family="Noto Sans" font-size="14" lengthAdjust="spacing" textLength="62.2438" x="169.98" y="179.9659">modules/</text></g><!--entity Snip--><g class="entity" data-entity="Snip" data-source-line="17" data-uid="ent0011" id="entity_Snip"><rect fill="#424856" height="39.0679" rx="2.5" ry="2.5" style="stroke:#61AFEF;stroke-width:0.5;" width="81.0538" x="160.58" y="303"/><text fill="#ABB2BF" font-family="Noto Sans" font-size="14" lengthAdjust="spacing" textLength="61.0538" x="170.58" y="327.9659">snippets/</text></g><!--link Einit to Init--><g class="link" data-entity-1="Einit" data-entity-2="Init" data-source-line="19" data-uid="lnk12" id="link_Einit_Init"><path d="M53.29,120.37 C53.29,130.98 53.29,138.02 53.29,148.65" fill="none" id="Einit-to-Init" style="stroke:#61AFEF;stroke-width:2;"/><polygon fill="#61AFEF" points="53.29,154.65,57.29,145.65,53.29,149.65,49.29,145.65,53.29,154.65" style="stroke:#61AFEF;stroke-width:2;"/></g><!--link Init to Modd--><g class="link" data-entity-1="Init" data-entity-2="Modd" data-source-line="20" data-uid="lnk13" id="link_Init_Modd"><path d="M81.95,174.54 C103.99,174.54 134.82,174.54 159.6,174.54" fill="none" id="Init-Modd" style="stroke:#61AFEF;stroke-width:2;"/></g><!--link Modd to Mod--><g class="link" data-entity-1="Modd" data-entity-2="Mod" data-source-line="21" data-uid="lnk14" id="link_Modd_Mod"><path d="M242.52,174.54 C260.98,174.54 276.81,174.54 295.83,174.54" fill="none" id="Modd-to-Mod" style="stroke:#61AFEF;stroke-width:2;"/><polygon fill="#61AFEF" points="301.83,174.54,292.83,170.54,296.83,174.54,292.83,178.54,301.83,174.54" style="stroke:#61AFEF;stroke-width:2;"/></g><!--link Mod to Tun--><g class="link" data-entity-1="Mod" data-entity-2="Tun" data-source-line="22" data-uid="lnk15" id="link_Mod_Tun"><path d="M394.92,174.54 C413.28,174.54 428.61,174.54 448.09,174.54" fill="none" id="Mod-to-Tun" style="stroke:#61AFEF;stroke-width:2;"/><polygon fill="#61AFEF" points="454.09,174.54,445.09,170.54,449.09,174.54,445.09,178.54,454.09,174.54" style="stroke:#61AFEF;stroke-width:2;"/></g><!--link Init to Cstm--><g class="link" data-entity-1="Init" data-entity-2="Cstm" data-source-line="23" data-uid="lnk16" id="link_Init_Cstm"><path d="M53.29,194.37 C53.29,204.98 53.29,212.02 53.29,222.65" fill="none" id="Init-to-Cstm" style="stroke:#61AFEF;stroke-width:2;"/><polygon fill="#61AFEF" points="53.29,228.65,57.29,219.65,53.29,223.65,49.29,219.65,53.29,228.65" style="stroke:#61AFEF;stroke-width:2;"/></g><!--reverse link Ast to Mod--><g class="link" data-entity-1="Ast" data-entity-2="Mod" data-source-line="25" data-uid="lnk18" id="link_Ast_Mod"><path d="M242.46,107.05 C281.62,107.05 333.29,107.05 333.29,107.05 C333.29,107.05 333.29,134.74 333.29,154.65" fill="none" id="Ast-backto-Mod" style="stroke:#61AFEF;stroke-width:1;stroke-dasharray:1,3;"/><polygon fill="#61AFEF" points="234.46,107.05,242.46,110.05,242.46,104.05,234.46,107.05" style="stroke:#61AFEF;stroke-width:1;"/></g><!--reverse link Site to Mod--><g class="link" data-entity-1="Site" data-entity-2="Mod" data-source-line="26" data-uid="lnk20" id="link_Site_Mod"><path d="M247.34,242.02 C286.38,242.02 333.29,242.02 333.29,242.02 C333.29,242.02 333.29,214.33 333.29,194.42" fill="none" id="Site-backto-Mod" style="stroke:#61AFEF;stroke-width:1;stroke-dasharray:1,3;"/><polygon fill="#61AFEF" points="239.34,242.02,247.34,245.02,247.34,239.02,239.34,242.02" style="stroke:#61AFEF;stroke-width:1;"/></g><!--reverse link Snip to Mod--><g class="link" data-entity-1="Snip" data-entity-2="Mod" data-source-line="27" data-uid="lnk22" id="link_Snip_Mod"><path d="M250.03,316.02 C298.08,316.02 363.29,316.02 363.29,316.02 C363.29,316.02 363.29,233.51 363.29,194.51" fill="none" id="Snip-backto-Mod" style="stroke:#61AFEF;stroke-width:1;stroke-dasharray:1,3;"/><polygon fill="#61AFEF" points="242.03,316.02,250.03,319.02,250.03,313.02,242.03,316.02" style="stroke:#61AFEF;stroke-width:1;"/></g><!--reverse link Auth to Mod--><g class="link" data-entity-1="Auth" data-entity-2="Mod" data-source-line="28" data-uid="lnk24" id="link_Auth_Mod"><path d="M238.85,33.05 C285.67,33.05 363.29,33.05 363.29,33.05 C363.29,33.05 363.29,115.56 363.29,154.56" fill="none" id="Auth-backto-Mod" style="stroke:#61AFEF;stroke-width:1;stroke-dasharray:1,3;"/><polygon fill="#61AFEF" points="230.85,33.05,238.85,36.05,238.85,30.05,230.85,33.05" style="stroke:#61AFEF;stroke-width:1;"/></g><!--reverse link Ast to Tun--><g class="link" data-entity-1="Ast" data-entity-2="Tun" data-source-line="30" data-uid="lnk26" id="link_Ast_Tun"><path d="M242.45,94.02 C319.29,94.02 494.29,94.02 494.29,94.02 C494.29,94.02 494.29,130.79 494.29,154.63" fill="none" id="Ast-backto-Tun" style="stroke:#61AFEF;stroke-width:1;stroke-dasharray:1,3;"/><polygon fill="#61AFEF" points="234.45,94.02,242.45,97.02,242.45,91.02,234.45,94.02" style="stroke:#61AFEF;stroke-width:1;"/></g><!--reverse link Site to Tun--><g class="link" data-entity-1="Site" data-entity-2="Tun" data-source-line="31" data-uid="lnk28" id="link_Site_Tun"><path d="M247.13,255.05 C326.46,255.05 494.29,255.05 494.29,255.05 C494.29,255.05 494.29,218.28 494.29,194.44" fill="none" id="Site-backto-Tun" style="stroke:#61AFEF;stroke-width:1;stroke-dasharray:1,3;"/><polygon fill="#61AFEF" points="239.13,255.05,247.13,258.05,247.13,252.05,239.13,255.05" style="stroke:#61AFEF;stroke-width:1;"/></g><!--reverse link Snip to Tun--><g class="link" data-entity-1="Snip" data-entity-2="Tun" data-source-line="32" data-uid="lnk30" id="link_Snip_Tun"><path d="M249.84,329.05 C338.54,329.05 533.29,329.05 533.29,329.05 C533.29,329.05 533.29,236.15 533.29,194.42" fill="none" id="Snip-backto-Tun" style="stroke:#61AFEF;stroke-width:1;stroke-dasharray:1,3;"/><polygon fill="#61AFEF" points="241.84,329.05,249.84,332.05,249.84,326.05,241.84,329.05" style="stroke:#61AFEF;stroke-width:1;"/></g><!--reverse link Auth to Tun--><g class="link" data-entity-1="Auth" data-entity-2="Tun" data-source-line="33" data-uid="lnk32" id="link_Auth_Tun"><path d="M239.17,20.02 C320.94,20.02 533.29,20.02 533.29,20.02 C533.29,20.02 533.29,112.92 533.29,154.65" fill="none" id="Auth-backto-Tun" style="stroke:#61AFEF;stroke-width:1;stroke-dasharray:1,3;"/><polygon fill="#61AFEF" points="231.17,20.02,239.17,23.02,239.17,17.02,231.17,20.02" style="stroke:#61AFEF;stroke-width:1;"/></g><!--link Auth to Ast--><!--reverse link Site to Snip--><!--reverse link Ast to Modd--><!--link Ast to Site--><!--SRC=[RP0nRmCX38Nt-nKqEnUfUq-geWuPEgLRrO4UpfqL3X0sKhFqjnUuaf2q0mZxUyzwvW7jQA86qMzvXWLw7nVJqGcjLq4jubEDfocuQFNE6HS41sKf8R3Sg0nQuBC7uGBFhZDmPC5E19nc5Xe3Z8pETfsQaaziG0LpbcYHUp0ReKYyvABY5koR_k9qD40LlJfToHY9tLB1ZdYfn0SuufSSdJtYL0LlCMMfYbv5dhUb_vnUjKt880sINz4XbHKf8c3wjT1zl6qDTqb75hs_E0wfwhgoi93lFEDuia3qzFWnhDlk2z4tIAu3y_K73UKdqlc7v4tNUU4UbLygjkyeXw5iSgtAlasPGpVQ_55T6jvuhrNnDcNsDjhYpNSEDQFMO7EUF2DBXJHDj-RGj-qiJaVSZiZY7m00]--></g></svg>