<svg xmlns="http://www.w3.org/2000/svg" xmlns:xlink="http://www.w3.org/1999/xlink" contentStyleType="text/css" data-diagram-type="DESCRIPTION" height="349px" preserveAspectRatio="none" style="width:517px;height:349px;background:#282C34;" version="1.1" viewBox="0 0 517 349" width="517px" zoomAndPan="magnify"><defs/><g><rect fill="#282C34" height="349" style="stroke:none;stroke-width:1;" width="517" x="0" y="0"/><!--entity Einit--><g class="entity" data-entity="Einit" data-source-line="4" data-uid="ent0002" id="entity_Einit"><rect fill="#424856" height="39.0679" rx="2.5" ry="2.5" style="stroke:#61AFEF;stroke-width:0.5;" width="92.9817" x="87.1" y="7"/><text fill="#ABB2BF" font-family="Noto Sans" font-size="14" lengthAdjust="spacing" textLength="72.9817" x="97.1" y="31.9659">early-init.el</text></g><!--entity Init--><g class="entity" data-entity="Init" data-source-line="5" data-uid="ent0003" id="entity_Init"><rect fill="#424856" height="39.0679" rx="2.5" ry="2.5" style="stroke:#61AFEF;stroke-width:0.5;" width="56.1898" x="215.49" y="7"/><text fill="#ABB2BF" font-family="Noto Sans" font-size="14" lengthAdjust="spacing" textLength="36.1898" x="225.49" y="31.9659">init.el</text></g><!--entity Mod--><g class="entity" data-entity="Mod" data-source-line="6" data-uid="ent0004" id="entity_Mod"><rect fill="#424856" height="39.0679" rx="2.5" ry="2.5" style="stroke:#61AFEF;stroke-width:0.5;" width="92.2957" x="197.44" y="205.13"/><text fill="#ABB2BF" font-family="Noto Sans" font-size="14" lengthAdjust="spacing" textLength="72.2957" x="207.44" y="230.0959">modules.el</text></g><!--entity Cstm--><g class="entity" data-entity="Cstm" data-source-line="7" data-uid="ent0005" id="entity_Cstm"><rect fill="#424856" height="39.0679" rx="2.5" ry="2.5" style="stroke:#61AFEF;stroke-width:0.5;" width="83.9518" x="306.61" y="7"/><text fill="#ABB2BF" font-family="Noto Sans" font-size="14" lengthAdjust="spacing" textLength="63.9518" x="316.61" y="31.9659">custom.el</text></g><!--entity Tun--><g class="entity" data-entity="Tun" data-source-line="8" data-uid="ent0006" id="entity_Tun"><rect fill="#424856" height="39.0679" rx="2.5" ry="2.5" style="stroke:#61AFEF;stroke-width:0.5;" width="118.7696" x="184.2" y="304.2"/><text fill="#ABB2BF" font-family="Noto Sans" font-size="14" lengthAdjust="spacing" textLength="98.7696" x="194.2" y="329.1659">prefix-config.el</text></g><!--entity Auth--><g class="entity" data-entity="Auth" data-source-line="11" data-uid="ent0007" id="entity_Auth"><rect fill="#424856" height="39.0679" rx="2.5" ry="2.5" style="stroke:#61AFEF;stroke-width:0.5;" width="59.1718" x="7" y="106.07"/><text fill="#ABB2BF" font-family="Noto Sans" font-size="14" lengthAdjust="spacing" textLength="39.1718" x="17" y="131.0359">.auth/</text></g><!--entity Site--><g class="entity" data-entity="Site" data-source-line="12" data-uid="ent0008" id="entity_Site"><rect fill="#424856" height="39.0679" rx="2.5" ry="2.5" style="stroke:#61AFEF;stroke-width:0.5;" width="75.5238" x="319.82" y="106.07"/><text fill="#ABB2BF" font-family="Noto Sans" font-size="14" lengthAdjust="spacing" textLength="55.5238" x="329.82" y="131.0359">site-lisp/</text></g><!--entity Ast--><g class="entity" data-entity="Ast" data-source-line="13" data-uid="ent0009" id="entity_Ast"><rect fill="#424856" height="39.0679" rx="2.5" ry="2.5" style="stroke:#61AFEF;stroke-width:0.5;" width="66.1298" x="101.52" y="106.07"/><text fill="#ABB2BF" font-family="Noto Sans" font-size="14" lengthAdjust="spacing" textLength="46.1298" x="111.52" y="131.0359">assets/</text></g><!--entity Modd--><g class="entity" data-entity="Modd" data-source-line="14" data-uid="ent0010" id="entity_Modd"><rect fill="#424856" height="39.0679" rx="2.5" ry="2.5" style="stroke:#61AFEF;stroke-width:0.5;" width="82.2438" x="202.46" y="106.07"/><text fill="#ABB2BF" font-family="Noto Sans" font-size="14" lengthAdjust="spacing" textLength="62.2438" x="212.46" y="131.0359">modules/</text></g><!--entity Snip--><g class="entity" data-entity="Snip" data-source-line="15" data-uid="ent0011" id="entity_Snip"><rect fill="#424856" height="39.0679" rx="2.5" ry="2.5" style="stroke:#61AFEF;stroke-width:0.5;" width="81.0538" x="430.06" y="106.07"/><text fill="#ABB2BF" font-family="Noto Sans" font-size="14" lengthAdjust="spacing" textLength="61.0538" x="440.06" y="131.0359">snippets/</text></g><!--link Einit to Init--><g class="link" data-entity-1="Einit" data-entity-2="Init" data-source-line="17" data-uid="lnk12" id="link_Einit_Init"><path d="M180.55,26.27 C192.35,26.27 198.65,26.27 209.22,26.27" fill="none" id="Einit-to-Init" style="stroke:#61AFEF;stroke-width:1;stroke-dasharray:7,7;"/><polygon fill="#61AFEF" points="215.22,26.27,206.22,22.27,210.22,26.27,206.22,30.27,215.22,26.27" style="stroke:#61AFEF;stroke-width:1;"/></g><!--link Init to Modd--><g class="link" data-entity-1="Init" data-entity-2="Modd" data-source-line="18" data-uid="lnk13" id="link_Init_Modd"><path d="M243.59,46.1 C243.59,63.36 243.59,82.39 243.59,99.73" fill="none" id="Init-to-Modd" style="stroke:#61AFEF;stroke-width:1;"/><polygon fill="#61AFEF" points="243.59,105.73,247.59,96.73,243.59,100.73,239.59,96.73,243.59,105.73" style="stroke:#61AFEF;stroke-width:1;"/></g><!--link Modd to Mod--><g class="link" data-entity-1="Modd" data-entity-2="Mod" data-source-line="19" data-uid="lnk14" id="link_Modd_Mod"><path d="M243.59,145.17 C243.59,162.43 243.59,181.45 243.59,198.8" fill="none" id="Modd-to-Mod" style="stroke:#61AFEF;stroke-width:1;"/><polygon fill="#61AFEF" points="243.59,204.8,247.59,195.8,243.59,199.8,239.59,195.8,243.59,204.8" style="stroke:#61AFEF;stroke-width:1;"/></g><!--link Mod to Tun--><g class="link" data-entity-1="Mod" data-entity-2="Tun" data-source-line="20" data-uid="lnk15" id="link_Mod_Tun"><path d="M243.59,244.24 C243.59,261.5 243.59,280.52 243.59,297.86" fill="none" id="Mod-to-Tun" style="stroke:#61AFEF;stroke-width:1;"/><polygon fill="#61AFEF" points="243.59,303.86,247.59,294.86,243.59,298.86,239.59,294.86,243.59,303.86" style="stroke:#61AFEF;stroke-width:1;"/></g><!--link Init to Cstm--><g class="link" data-entity-1="Init" data-entity-2="Cstm" data-source-line="21" data-uid="lnk16" id="link_Init_Cstm"><path d="M272,26.27 C282.57,26.27 288.8,26.27 300.34,26.27" fill="none" id="Init-to-Cstm" style="stroke:#61AFEF;stroke-width:1;stroke-dasharray:7,7;"/><polygon fill="#61AFEF" points="306.34,26.27,297.34,22.27,301.34,26.27,297.34,30.27,306.34,26.27" style="stroke:#61AFEF;stroke-width:1;"/></g><!--reverse link Ast to Mod--><g class="link" data-entity-1="Ast" data-entity-2="Mod" data-source-line="23" data-uid="lnk18" id="link_Ast_Mod"><path d="M134.59,153.25 C134.59,180.46 134.59,218.27 134.59,218.27 C134.59,218.27 167.42,218.27 197.04,218.27" fill="none" id="Ast-backto-Mod" style="stroke:#61AFEF;stroke-width:1;stroke-dasharray:1,3;"/><polygon fill="#61AFEF" points="134.59,145.25,131.59,153.25,137.59,153.25,134.59,145.25" style="stroke:#61AFEF;stroke-width:1;"/></g><!--reverse link Site to Mod--><g class="link" data-entity-1="Site" data-entity-2="Mod" data-source-line="24" data-uid="lnk20" id="link_Site_Mod"><path d="M357.59,153.25 C357.59,180.46 357.59,218.27 357.59,218.27 C357.59,218.27 321.52,218.27 289.95,218.27" fill="none" id="Site-backto-Mod" style="stroke:#61AFEF;stroke-width:1;stroke-dasharray:1,3;"/><polygon fill="#61AFEF" points="357.59,145.25,354.59,153.25,360.59,153.25,357.59,145.25" style="stroke:#61AFEF;stroke-width:1;"/></g><!--reverse link Snip to Mod--><g class="link" data-entity-1="Snip" data-entity-2="Mod" data-source-line="25" data-uid="lnk22" id="link_Snip_Mod"><path d="M470.59,153.48 C470.59,184.09 470.59,231.27 470.59,231.27 C470.59,231.27 356.48,231.27 290.07,231.27" fill="none" id="Snip-backto-Mod" style="stroke:#61AFEF;stroke-width:1;stroke-dasharray:1,3;"/><polygon fill="#61AFEF" points="470.59,145.48,467.59,153.48,473.59,153.48,470.59,145.48" style="stroke:#61AFEF;stroke-width:1;"/></g><!--reverse link Auth to Mod--><g class="link" data-entity-1="Auth" data-entity-2="Mod" data-source-line="26" data-uid="lnk24" id="link_Auth_Mod"><path d="M36.59,153.48 C36.59,184.09 36.59,231.27 36.59,231.27 C36.59,231.27 136.1,231.27 197.13,231.27" fill="none" id="Auth-backto-Mod" style="stroke:#61AFEF;stroke-width:1;stroke-dasharray:1,3;"/><polygon fill="#61AFEF" points="36.59,145.48,33.59,153.48,39.59,153.48,36.59,145.48" style="stroke:#61AFEF;stroke-width:1;"/></g><!--link Auth to Ast--><!--reverse link Site to Snip--><!--reverse link Ast to Modd--><!--link Ast to Site--><!--SRC=[NK-xJiGm4Epz5SlrTluW4a8K55H7XoYiUEzYuPUyQubh-7Pi1uSSHKQPnwvd7snON348Qk8LFShaTE3YdKeL17tQa7JM7fmDoBU443ElKGXznS1mGftTJTfWMQ4xWIPuRcJOH-FbeFjeYaCQrciqmraASVJ3U2BsmqaPB_PBBZ5Sx7K4taeGUncb2wzJrn_htv39CafdAMtMkT9XQI9a-XsX__McKMvlHy6cj4-SAnEY7mngtWvi0DB8UPjhiDF6Dj9gzwJAbVKhk_bTv3pt9d-izptGzkWXsmuL3K7czzKQW-53RZjQ5AGxg6ENkPTRk7vmlwA5Vm00]--></g></svg>