<?xml version="1.0" encoding="us-ascii" standalone="no"?><svg xmlns="http://www.w3.org/2000/svg" xmlns:xlink="http://www.w3.org/1999/xlink" contentStyleType="text/css" height="349px" preserveAspectRatio="none" style="width:486px;height:349px;" version="1.1" viewBox="0 0 486 349" width="486px" zoomAndPan="magnify"><defs/><g><!--entity Einit--><g id="elem_Einit"><rect fill="#424856" height="39.0679" rx="2.5" ry="2.5" style="stroke:#61AFEF;stroke-width:0.5;" width="96" x="75" y="7"/><text fill="#ABB2BF" font-family="-apple-system, BlinkMacSystemFont, &quot;Segoe UI&quot;, Roboto, &quot;Helvetica Neue&quot;, Arial, &quot;Noto Sans&quot;, sans-serif, &quot;Apple Color Emoji&quot;, &quot;Segoe UI Emoji&quot;, &quot;Segoe UI Symbol&quot;, &quot;Noto Color Emoji&quot;" font-size="14" lengthAdjust="spacing" textLength="76" x="85" y="31.9659">early-init.el</text></g><!--entity Init--><g id="elem_Init"><rect fill="#424856" height="39.0679" rx="2.5" ry="2.5" style="stroke:#61AFEF;stroke-width:0.5;" width="58" x="206" y="7"/><text fill="#ABB2BF" font-family="-apple-system, BlinkMacSystemFont, &quot;Segoe UI&quot;, Roboto, &quot;Helvetica Neue&quot;, Arial, &quot;Noto Sans&quot;, sans-serif, &quot;Apple Color Emoji&quot;, &quot;Segoe UI Emoji&quot;, &quot;Segoe UI Symbol&quot;, &quot;Noto Color Emoji&quot;" font-size="14" lengthAdjust="spacing" textLength="38" x="216" y="31.9659">init.el</text></g><!--entity Mod--><g id="elem_Mod"><rect fill="#424856" height="39.0679" rx="2.5" ry="2.5" style="stroke:#61AFEF;stroke-width:0.5;" width="94" x="188" y="205"/><text fill="#ABB2BF" font-family="-apple-system, BlinkMacSystemFont, &quot;Segoe UI&quot;, Roboto, &quot;Helvetica Neue&quot;, Arial, &quot;Noto Sans&quot;, sans-serif, &quot;Apple Color Emoji&quot;, &quot;Segoe UI Emoji&quot;, &quot;Segoe UI Symbol&quot;, &quot;Noto Color Emoji&quot;" font-size="14" lengthAdjust="spacing" textLength="74" x="198" y="229.9659">modules.el</text></g><!--entity Cstm--><g id="elem_Cstm"><rect fill="#424856" height="39.0679" rx="2.5" ry="2.5" style="stroke:#61AFEF;stroke-width:0.5;" width="85" x="299.5" y="7"/><text fill="#ABB2BF" font-family="-apple-system, BlinkMacSystemFont, &quot;Segoe UI&quot;, Roboto, &quot;Helvetica Neue&quot;, Arial, &quot;Noto Sans&quot;, sans-serif, &quot;Apple Color Emoji&quot;, &quot;Segoe UI Emoji&quot;, &quot;Segoe UI Symbol&quot;, &quot;Noto Color Emoji&quot;" font-size="14" lengthAdjust="spacing" textLength="65" x="309.5" y="31.9659">custom.el</text></g><!--entity Tun--><g id="elem_Tun"><rect fill="#424856" height="39.0679" rx="2.5" ry="2.5" style="stroke:#61AFEF;stroke-width:0.5;" width="122" x="174" y="304"/><text fill="#ABB2BF" font-family="-apple-system, BlinkMacSystemFont, &quot;Segoe UI&quot;, Roboto, &quot;Helvetica Neue&quot;, Arial, &quot;Noto Sans&quot;, sans-serif, &quot;Apple Color Emoji&quot;, &quot;Segoe UI Emoji&quot;, &quot;Segoe UI Symbol&quot;, &quot;Noto Color Emoji&quot;" font-size="14" lengthAdjust="spacing" textLength="102" x="184" y="328.9659">prefix-config.el</text></g><!--entity Auth--><g id="elem_Auth"><rect fill="#424856" height="39.0679" rx="2.5" ry="2.5" style="stroke:#61AFEF;stroke-width:0.5;" width="60" x="7" y="106"/><text fill="#ABB2BF" font-family="-apple-system, BlinkMacSystemFont, &quot;Segoe UI&quot;, Roboto, &quot;Helvetica Neue&quot;, Arial, &quot;Noto Sans&quot;, sans-serif, &quot;Apple Color Emoji&quot;, &quot;Segoe UI Emoji&quot;, &quot;Segoe UI Symbol&quot;, &quot;Noto Color Emoji&quot;" font-size="14" lengthAdjust="spacing" textLength="40" x="17" y="130.9659">.auth/</text></g><!--entity Img--><g id="elem_Img"><rect fill="#424856" height="39.0679" rx="2.5" ry="2.5" style="stroke:#61AFEF;stroke-width:0.5;" width="51" x="429.5" y="106"/><text fill="#ABB2BF" font-family="-apple-system, BlinkMacSystemFont, &quot;Segoe UI&quot;, Roboto, &quot;Helvetica Neue&quot;, Arial, &quot;Noto Sans&quot;, sans-serif, &quot;Apple Color Emoji&quot;, &quot;Segoe UI Emoji&quot;, &quot;Segoe UI Symbol&quot;, &quot;Noto Color Emoji&quot;" font-size="14" lengthAdjust="spacing" textLength="31" x="439.5" y="130.9659">img/</text></g><!--entity Loc--><g id="elem_Loc"><rect fill="#424856" height="39.0679" rx="2.5" ry="2.5" style="stroke:#61AFEF;stroke-width:0.5;" width="56" x="102" y="106"/><text fill="#ABB2BF" font-family="-apple-system, BlinkMacSystemFont, &quot;Segoe UI&quot;, Roboto, &quot;Helvetica Neue&quot;, Arial, &quot;Noto Sans&quot;, sans-serif, &quot;Apple Color Emoji&quot;, &quot;Segoe UI Emoji&quot;, &quot;Segoe UI Symbol&quot;, &quot;Noto Color Emoji&quot;" font-size="14" lengthAdjust="spacing" textLength="36" x="112" y="130.9659">local/</text></g><!--entity Modd--><g id="elem_Modd"><rect fill="#424856" height="39.0679" rx="2.5" ry="2.5" style="stroke:#61AFEF;stroke-width:0.5;" width="83" x="193.5" y="106"/><text fill="#ABB2BF" font-family="-apple-system, BlinkMacSystemFont, &quot;Segoe UI&quot;, Roboto, &quot;Helvetica Neue&quot;, Arial, &quot;Noto Sans&quot;, sans-serif, &quot;Apple Color Emoji&quot;, &quot;Segoe UI Emoji&quot;, &quot;Segoe UI Symbol&quot;, &quot;Noto Color Emoji&quot;" font-size="14" lengthAdjust="spacing" textLength="63" x="203.5" y="130.9659">modules/</text></g><!--entity Snip--><g id="elem_Snip"><rect fill="#424856" height="39.0679" rx="2.5" ry="2.5" style="stroke:#61AFEF;stroke-width:0.5;" width="83" x="311.5" y="106"/><text fill="#ABB2BF" font-family="-apple-system, BlinkMacSystemFont, &quot;Segoe UI&quot;, Roboto, &quot;Helvetica Neue&quot;, Arial, &quot;Noto Sans&quot;, sans-serif, &quot;Apple Color Emoji&quot;, &quot;Segoe UI Emoji&quot;, &quot;Segoe UI Symbol&quot;, &quot;Noto Color Emoji&quot;" font-size="14" lengthAdjust="spacing" textLength="63" x="321.5" y="130.9659">snippets/</text></g><!--link Einit to Init--><g id="link_Einit_Init"><path d="M171.47,27 C171.47,27 199,27 199,27 " fill="none" id="Einit-to-Init" style="stroke:#61AFEF;stroke-width:1.0;stroke-dasharray:7.0,7.0;"/><polygon fill="#61AFEF" points="204,27,195,23,199,27,195,31,204,27" style="stroke:#61AFEF;stroke-width:1.0;"/></g><!--link Init to Modd--><g id="link_Init_Modd"><path d="M235,46.06 C235,46.06 235,99.13 235,99.13 " fill="none" id="Init-to-Modd" style="stroke:#61AFEF;stroke-width:1.0;"/><polygon fill="#61AFEF" points="235,104.13,239,95.13,235,99.13,231,95.13,235,104.13" style="stroke:#61AFEF;stroke-width:1.0;"/></g><!--link Modd to Mod--><g id="link_Modd_Mod"><path d="M235,145.06 C235,145.06 235,198.13 235,198.13 " fill="none" id="Modd-to-Mod" style="stroke:#61AFEF;stroke-width:1.0;"/><polygon fill="#61AFEF" points="235,203.13,239,194.13,235,198.13,231,194.13,235,203.13" style="stroke:#61AFEF;stroke-width:1.0;"/></g><!--link Mod to Tun--><g id="link_Mod_Tun"><path d="M235,244.06 C235,244.06 235,297.13 235,297.13 " fill="none" id="Mod-to-Tun" style="stroke:#61AFEF;stroke-width:1.0;"/><polygon fill="#61AFEF" points="235,302.13,239,293.13,235,297.13,231,293.13,235,302.13" style="stroke:#61AFEF;stroke-width:1.0;"/></g><!--link Init to Cstm--><g id="link_Init_Cstm"><path d="M264.24,27 C264.24,27 292.64,27 292.64,27 " fill="none" id="Init-to-Cstm" style="stroke:#61AFEF;stroke-width:1.0;stroke-dasharray:7.0,7.0;"/><polygon fill="#61AFEF" points="297.64,27,288.64,23,292.64,27,288.64,31,297.64,27" style="stroke:#61AFEF;stroke-width:1.0;"/></g><!--reverse link Loc to Mod--><g id="link_Loc_Mod"><path d="M130,154.63 C130,154.63 130,218 130,218 C130,218 159.85,218 187.72,218 " fill="none" id="Loc-backto-Mod" style="stroke:#61AFEF;stroke-width:1.0;stroke-dasharray:1.0,3.0;"/><polygon fill="#61AFEF" points="130,146.63,127,154.63,133,154.63,130,146.63" style="stroke:#61AFEF;stroke-width:1.0;"/></g><!--reverse link Snip to Mod--><g id="link_Snip_Mod"><path d="M353,154.63 C353,154.63 353,218 353,218 C353,218 315.14,218 282.32,218 " fill="none" id="Snip-backto-Mod" style="stroke:#61AFEF;stroke-width:1.0;stroke-dasharray:1.0,3.0;"/><polygon fill="#61AFEF" points="353,146.63,350,154.63,356,154.63,353,146.63" style="stroke:#61AFEF;stroke-width:1.0;"/></g><!--reverse link Auth to Mod--><g id="link_Auth_Mod"><path d="M37,154.86 C37,154.86 37,231 37,231 C37,231 129,231 187.57,231 " fill="none" id="Auth-backto-Mod" style="stroke:#61AFEF;stroke-width:1.0;stroke-dasharray:1.0,3.0;"/><polygon fill="#61AFEF" points="37,146.86,34,154.86,40,154.86,37,146.86" style="stroke:#61AFEF;stroke-width:1.0;"/></g><!--reverse link Img to Mod--><g id="link_Img_Mod"><path d="M455,154.86 C455,154.86 455,231 455,231 C455,231 347.14,231 282.47,231 " fill="none" id="Img-backto-Mod" style="stroke:#61AFEF;stroke-width:1.0;stroke-dasharray:1.0,3.0;"/><polygon fill="#61AFEF" points="455,146.86,452,154.86,458,154.86,455,146.86" style="stroke:#61AFEF;stroke-width:1.0;"/></g><!--link Auth to Loc--><!--reverse link Snip to Img--><!--reverse link Loc to Modd--><!--link Loc to Snip--><!--SRC=[NP0zRWCX48LxJa7S0pTOAR9IM4ggf8jIO1Zl8lCd6AIuoTa3R5YlK-net_k6uGrFnYjRD52n10S2yNOswCrLS71IPQw53KfQWGiuOD5AZyLP7ciX-Mfyb4awUfRgEgTGl3u66nB597sk23pkkgpnWBS8D2HS0Y5ohfmUG2PxOyORv60FL6RwqiJ0Ut3Q-IxeOY4Fz1Rq8Afa36w0OqOtI4nmCTzC1NynysZuA9viORWik8ZkFzU_BOIRL_Favk6j3zFTrw3-nH8Zr9OgUnCZu1zvhugGlYZbqxfOAvHfDgtdMjbaKwjeSNidJrNrxJhyAMoQUfAxwhVSPT_eBjikf7cKfS_5Q0t-YwqZAgBCximnIJ_QhRT-ZmDQxoy0]--></g></svg>